<svg width="300" height="100" viewBox="0 0 300 100" xmlns="http://www.w3.org/2000/svg" fill="none">
  <rect width="300" height="100" rx="12" fill="#1E3A8A"/>
  <g transform="translate(20, 25)">
    <circle cx="25" cy="25" r="20" fill="#60A5FA"/>
    <path d="M25 10C17 10 10 17.82 10 25.5C10 34.32 24.35 49.28 25.27 50.27C25.67 50.7 26.33 50.7 26.73 50.27C27.65 49.28 42 34.32 42 25.5C42 17.82 35 10 25 10ZM25 32.25C21.27 32.25 18.25 29.23 18.25 25.5C18.25 21.77 21.27 18.75 25 18.75C28.73 18.75 31.75 21.77 31.75 25.5C31.75 29.23 28.73 32.25 25 32.25Z" fill="white"/>
  </g>
  <text x="90" y="60" font-size="28" fill="white" font-family="Verdana, sans-serif" font-weight="bold">
    MapMyTrip<tspan fill="#38BDF8">AI</tspan>
  </text>
</svg>
